# xmcd CD database file
#
# Track frame offsets:
#	150
#	17565
#	36307
#	57315
#	79220
#	103497
#	121307
#	140435
#	161220
#	187872
#
# Disc length: 2776 seconds
#
# Revision: 2
# Processed by: cddbd v1.5.2PL0 Copyright (c) Steve Scherf et al.
# Submitted via: CDex 1.70beta3
#
DISCID=880ad60a
DTITLE=The Street Sliders - NASTY CHILDREN
DYEAR=1900
DGENRE=Rock
TTITLE0=COME OUT ON THE RUN
TTITLE1=CANCEL
TTITLE2=IT'S ALRIGHT BABY
TTITLE3=FRIENDS
TTITLE4=LOVE YOU DARLIN'
TTITLE5=THE LONGEST NIGHT
TTITLE6=ROCKN'ROLL SISTER
TTITLE7=安物ワイン
TTITLE8=PANORAMA
TTITLE9=DON'T WAIT TOO LONG
EXTD=
EXTT0=
EXTT1=
EXTT2=
EXTT3=
EXTT4=
EXTT5=
EXTT6=
EXTT7=
EXTT8=
EXTT9=
PLAYORDER=
